# xmcd
#
# Track frame offsets:
#	150
#	18992
#	32265
#	46290
#	61050
#	77390
#	89467
#	109372
#	122700
#	148130
#	160920
#	174385
#	189184
#	206090
#	223670
#	238065
#	254497
#	271920
#
# Disc length: 3798 seconds
#
# Revision: 7
# Processed by: cddbd v1.5.1PL2 Copyright (c) Steve Scherf et al.
# Submitted via: dBpowerAMP V4.0
#
DISCID=f50ed412
DTITLE=Jimmy Buffett - Beaches
DYEAR=1992
DGENRE=Folk-Rock
TTITLE0=Margaritaville
TTITLE1=Grapefruit - Juicy Fruit
TTITLE2=Ragtop Day
TTITLE3=Frank and Lola
TTITLE4=Tin Cup Chalice
TTITLE5=Knees of my Heart
TTITLE6=Money Back Guarantee
TTITLE7=When the Coast is Clear
TTITLE8=Biloxi
TTITLE9=Distantly in Love
TTITLE10=Coconut Telegraph
TTITLE11=Stars on the Water
TTITLE12=Who's the Blonde Stranger
TTITLE13=I Have Foune Me a Home
TTITLE14=Christmas in the Caribbean
TTITLE15=Volcano
TTITLE16=Brown Eyed Girl
TTITLE17=Cheeseburger in Paradise
EXTD=1992 Margaritaville Records/MCA\nTrack 2 had misspellings in it.  
EXTT0=
EXTT1=
EXTT2=
EXTT3=
EXTT4=
EXTT5=
EXTT6=
EXTT7=
EXTT8=
EXTT9=
EXTT10=
EXTT11=
EXTT12=
EXTT13=
EXTT14=
EXTT15=
EXTT16=
EXTT17=
PLAYORDER=
